<svg xmlns="http://www.w3.org/2000/svg" xmlns:xlink="http://www.w3.org/1999/xlink" width="500" zoomAndPan="magnify" viewBox="0 0 375 374.999991" height="500" preserveAspectRatio="xMidYMid meet" version="1.0"><defs><g/><clipPath id="3fa1dfa880"><path d="M 38 164 L 148 164 L 148 227.355469 L 38 227.355469 Z M 38 164 " clip-rule="nonzero"/></clipPath><clipPath id="6f185cdfd9"><path d="M 55 126.105469 L 117 126.105469 L 117 199 L 55 199 Z M 55 126.105469 " clip-rule="nonzero"/></clipPath></defs><rect x="-37.5" width="450" fill="#ffffff" y="-37.499999" height="449.999989" fill-opacity="1"/><rect x="-37.5" width="450" fill="#000000" y="-37.499999" height="449.999989" fill-opacity="1"/><g clip-path="url(#3fa1dfa880)"><path fill="#fffdfd" d="M 45.277344 226.402344 C 43.796875 227.886719 41.386719 227.886719 39.90625 226.402344 C 38.417969 224.921875 38.417969 222.511719 39.90625 221.027344 L 77.933594 182.996094 C 79.304688 181.628906 81.484375 181.507812 83 182.714844 L 105.691406 200.871094 L 141.320312 165.25 C 142.800781 163.765625 145.210938 163.765625 146.691406 165.25 C 148.179688 166.734375 148.179688 169.144531 146.691406 170.625 L 108.664062 208.65625 C 107.292969 210.03125 105.113281 210.152344 103.597656 208.9375 L 80.90625 190.78125 Z M 45.277344 226.402344 " fill-opacity="1" fill-rule="evenodd"/></g><path fill="#fffdfd" d="M 128.792969 171.742188 C 126.695312 171.742188 124.992188 170.035156 124.992188 167.9375 C 124.992188 165.839844 126.695312 164.132812 128.792969 164.132812 L 144.003906 164.132812 C 146.105469 164.132812 147.808594 165.839844 147.808594 167.9375 L 147.808594 183.148438 C 147.808594 185.25 146.105469 186.953125 144.003906 186.953125 C 141.90625 186.953125 140.203125 185.25 140.203125 183.148438 L 140.203125 171.742188 Z M 128.792969 171.742188 " fill-opacity="1" fill-rule="evenodd"/><g clip-path="url(#6f185cdfd9)"><path fill="#fffdfd" d="M 55.304688 198.457031 L 55.304688 183.03125 C 55.304688 182.628906 55.460938 182.242188 55.75 181.957031 C 56.035156 181.667969 56.417969 181.511719 56.824219 181.511719 L 64.832031 181.511719 C 65.671875 181.511719 66.351562 182.191406 66.351562 183.03125 L 66.351562 187.402344 Z M 71.878906 181.878906 L 71.878906 155.402344 C 71.878906 155.003906 72.039062 154.617188 72.328125 154.328125 C 72.609375 154.042969 72.996094 153.882812 73.402344 153.882812 L 81.40625 153.882812 C 82.25 153.882812 82.929688 154.566406 82.929688 155.402344 L 82.929688 177.117188 C 79.949219 176.3125 76.65625 177.105469 74.351562 179.414062 Z M 88.457031 180.589844 L 88.457031 127.777344 C 88.457031 127.371094 88.613281 126.988281 88.902344 126.703125 C 89.1875 126.417969 89.570312 126.257812 89.976562 126.257812 L 97.984375 126.257812 C 98.390625 126.257812 98.773438 126.417969 99.058594 126.703125 C 99.347656 126.988281 99.503906 127.371094 99.503906 127.777344 L 99.503906 189.425781 C 95.789062 186.457031 91.167969 182.757812 88.457031 180.589844 Z M 105.03125 193.847656 L 105.03125 144.355469 C 105.03125 143.511719 105.710938 142.832031 106.554688 142.832031 L 114.558594 142.832031 C 115.402344 142.832031 116.082031 143.511719 116.082031 144.355469 L 116.082031 183.3125 L 105.316406 194.078125 C 105.316406 194.078125 105.214844 193.996094 105.03125 193.847656 Z M 105.03125 193.847656 " fill-opacity="1" fill-rule="evenodd"/></g><g fill="#fffdfd" fill-opacity="1"><g transform="translate(160.876115, 172.649989)"><g><path d="M 12.1875 -26.96875 L 0.71875 -26.96875 L 0.71875 -33.59375 L 31.25 -33.59375 L 31.25 -26.96875 L 19.78125 -26.96875 L 19.78125 0 L 12.1875 0 Z M 12.1875 -26.96875 "/></g></g></g><g fill="#fffdfd" fill-opacity="1"><g transform="translate(201.38806, 172.649989)"><g><path d="M 2.875 -6.390625 L 11.140625 -6.390625 L 11.140625 -27.21875 L 2.875 -27.21875 L 2.875 -33.59375 L 26.96875 -33.59375 L 26.96875 -27.21875 L 18.71875 -27.21875 L 18.71875 -6.390625 L 26.96875 -6.390625 L 26.96875 0 L 2.875 0 Z M 2.875 -6.390625 "/></g></g></g><g fill="#fffdfd" fill-opacity="1"><g transform="translate(239.78801, 172.649989)"><g><path d="M 3.84375 -33.59375 L 17.953125 -33.59375 C 22.972656 -33.59375 26.644531 -32.519531 28.96875 -30.375 C 31.289062 -28.238281 32.453125 -25.15625 32.453125 -21.125 C 32.453125 -17.125 31.289062 -14.050781 28.96875 -11.90625 C 26.644531 -9.757812 22.972656 -8.6875 17.953125 -8.6875 L 11.421875 -8.6875 L 11.421875 0 L 3.84375 0 Z M 17.953125 -15.078125 C 20.097656 -15.078125 21.726562 -15.570312 22.84375 -16.5625 C 23.96875 -17.550781 24.53125 -19.070312 24.53125 -21.125 C 24.53125 -23.164062 23.96875 -24.691406 22.84375 -25.703125 C 21.726562 -26.710938 20.097656 -27.21875 17.953125 -27.21875 L 11.421875 -27.21875 L 11.421875 -15.078125 Z M 17.953125 -15.078125 "/></g></g></g><g fill="#ffffff" fill-opacity="1"><g transform="translate(160.296212, 219.125465)"><g><path d="M 11.296875 -17.28125 L 13.109375 -17.28125 L 13.109375 0 L 11.296875 0 L 11.296875 -1.796875 C 10.804688 -1.171875 10.179688 -0.675781 9.421875 -0.3125 C 8.671875 0.0507812 7.859375 0.234375 6.984375 0.234375 C 5.910156 0.234375 4.910156 -0.03125 3.984375 -0.5625 C 3.054688 -1.101562 2.316406 -1.835938 1.765625 -2.765625 C 1.222656 -3.703125 0.953125 -4.738281 0.953125 -5.875 C 0.953125 -7.007812 1.222656 -8.046875 1.765625 -8.984375 C 2.316406 -9.921875 3.054688 -10.65625 3.984375 -11.1875 C 4.910156 -11.726562 5.910156 -12 6.984375 -12 C 7.859375 -12 8.671875 -11.8125 9.421875 -11.4375 C 10.179688 -11.070312 10.804688 -10.578125 11.296875 -9.953125 Z M 7.125 -1.4375 C 7.90625 -1.4375 8.625 -1.628906 9.28125 -2.015625 C 9.9375 -2.410156 10.457031 -2.941406 10.84375 -3.609375 C 11.226562 -4.285156 11.421875 -5.039062 11.421875 -5.875 C 11.421875 -6.707031 11.226562 -7.457031 10.84375 -8.125 C 10.457031 -8.800781 9.9375 -9.332031 9.28125 -9.71875 C 8.625 -10.113281 7.90625 -10.3125 7.125 -10.3125 C 6.34375 -10.3125 5.625 -10.113281 4.96875 -9.71875 C 4.3125 -9.332031 3.789062 -8.800781 3.40625 -8.125 C 3.019531 -7.457031 2.828125 -6.707031 2.828125 -5.875 C 2.828125 -5.039062 3.019531 -4.285156 3.40625 -3.609375 C 3.789062 -2.941406 4.3125 -2.410156 4.96875 -2.015625 C 5.625 -1.628906 6.34375 -1.4375 7.125 -1.4375 Z M 7.125 -1.4375 "/></g></g></g><g fill="#ffffff" fill-opacity="1"><g transform="translate(174.360244, 219.125465)"><g><path d="M 3.59375 0 L 1.796875 0 L 1.796875 -11.765625 L 3.59375 -11.765625 Z M 3.75 -14.015625 L 1.65625 -14.015625 L 1.65625 -16.21875 L 3.75 -16.21875 Z M 3.75 -14.015625 "/></g></g></g><g fill="#ffffff" fill-opacity="1"><g transform="translate(178.800252, 219.125465)"><g><path d="M 11.0625 -11.765625 L 12.859375 -11.765625 L 12.859375 -0.71875 C 12.859375 0.382812 12.609375 1.375 12.109375 2.25 C 11.617188 3.132812 10.929688 3.820312 10.046875 4.3125 C 9.160156 4.800781 8.140625 5.046875 6.984375 5.046875 C 5.609375 5.046875 4.414062 4.679688 3.40625 3.953125 C 2.394531 3.222656 1.707031 2.222656 1.34375 0.953125 L 3.140625 0.953125 C 3.429688 1.691406 3.914062 2.273438 4.59375 2.703125 C 5.269531 3.140625 6.066406 3.359375 6.984375 3.359375 C 8.234375 3.359375 9.222656 2.984375 9.953125 2.234375 C 10.691406 1.484375 11.0625 0.5 11.0625 -0.71875 L 11.0625 -2.25 C 10.550781 -1.625 9.9375 -1.128906 9.21875 -0.765625 C 8.507812 -0.410156 7.722656 -0.234375 6.859375 -0.234375 C 5.773438 -0.234375 4.785156 -0.484375 3.890625 -0.984375 C 2.992188 -1.484375 2.28125 -2.179688 1.75 -3.078125 C 1.21875 -3.972656 0.953125 -4.988281 0.953125 -6.125 C 0.953125 -7.257812 1.21875 -8.273438 1.75 -9.171875 C 2.28125 -10.066406 2.992188 -10.757812 3.890625 -11.25 C 4.785156 -11.75 5.773438 -12 6.859375 -12 C 7.722656 -12 8.507812 -11.816406 9.21875 -11.453125 C 9.9375 -11.097656 10.550781 -10.609375 11.0625 -9.984375 Z M 7.015625 -1.921875 C 7.796875 -1.921875 8.503906 -2.101562 9.140625 -2.46875 C 9.785156 -2.84375 10.285156 -3.347656 10.640625 -3.984375 C 11.003906 -4.617188 11.1875 -5.332031 11.1875 -6.125 C 11.1875 -6.90625 11.003906 -7.613281 10.640625 -8.25 C 10.285156 -8.894531 9.785156 -9.398438 9.140625 -9.765625 C 8.503906 -10.128906 7.796875 -10.3125 7.015625 -10.3125 C 6.222656 -10.3125 5.503906 -10.128906 4.859375 -9.765625 C 4.222656 -9.398438 3.722656 -8.894531 3.359375 -8.25 C 3.003906 -7.613281 2.828125 -6.90625 2.828125 -6.125 C 2.828125 -5.332031 3.003906 -4.617188 3.359375 -3.984375 C 3.722656 -3.347656 4.222656 -2.84375 4.859375 -2.46875 C 5.503906 -2.101562 6.222656 -1.921875 7.015625 -1.921875 Z M 7.015625 -1.921875 "/></g></g></g><g fill="#ffffff" fill-opacity="1"><g transform="translate(192.504274, 219.125465)"><g><path d="M 3.59375 0 L 1.796875 0 L 1.796875 -11.765625 L 3.59375 -11.765625 Z M 3.75 -14.015625 L 1.65625 -14.015625 L 1.65625 -16.21875 L 3.75 -16.21875 Z M 3.75 -14.015625 "/></g></g></g><g fill="#ffffff" fill-opacity="1"><g transform="translate(196.944283, 219.125465)"><g><path d="M 7.4375 -10.125 L 4.4375 -10.125 L 4.4375 -3.59375 C 4.4375 -3.007812 4.609375 -2.546875 4.953125 -2.203125 C 5.296875 -1.859375 5.765625 -1.6875 6.359375 -1.6875 L 7.4375 -1.6875 L 7.4375 0 L 6.234375 0 C 5.160156 0 4.289062 -0.320312 3.625 -0.96875 C 2.96875 -1.613281 2.640625 -2.453125 2.640625 -3.484375 L 2.640625 -10.125 L 0.71875 -10.125 L 0.71875 -11.765625 L 2.640625 -11.765625 L 2.640625 -14.875 L 4.4375 -14.875 L 4.4375 -11.765625 L 7.4375 -11.765625 Z M 7.4375 -10.125 "/></g></g></g><g fill="#ffffff" fill-opacity="1"><g transform="translate(204.384304, 219.125465)"><g><path d="M 11.296875 -11.765625 L 13.109375 -11.765625 L 13.109375 0 L 11.296875 0 L 11.296875 -1.796875 C 10.804688 -1.171875 10.179688 -0.675781 9.421875 -0.3125 C 8.671875 0.0507812 7.859375 0.234375 6.984375 0.234375 C 5.910156 0.234375 4.910156 -0.03125 3.984375 -0.5625 C 3.054688 -1.101562 2.316406 -1.835938 1.765625 -2.765625 C 1.222656 -3.703125 0.953125 -4.738281 0.953125 -5.875 C 0.953125 -7.007812 1.222656 -8.046875 1.765625 -8.984375 C 2.316406 -9.921875 3.054688 -10.65625 3.984375 -11.1875 C 4.910156 -11.726562 5.910156 -12 6.984375 -12 C 7.859375 -12 8.671875 -11.8125 9.421875 -11.4375 C 10.179688 -11.070312 10.804688 -10.578125 11.296875 -9.953125 Z M 7.125 -1.4375 C 7.90625 -1.4375 8.625 -1.628906 9.28125 -2.015625 C 9.9375 -2.410156 10.457031 -2.941406 10.84375 -3.609375 C 11.226562 -4.285156 11.421875 -5.039062 11.421875 -5.875 C 11.421875 -6.707031 11.226562 -7.457031 10.84375 -8.125 C 10.457031 -8.800781 9.9375 -9.332031 9.28125 -9.71875 C 8.625 -10.113281 7.90625 -10.3125 7.125 -10.3125 C 6.34375 -10.3125 5.625 -10.113281 4.96875 -9.71875 C 4.3125 -9.332031 3.789062 -8.800781 3.40625 -8.125 C 3.019531 -7.457031 2.828125 -6.707031 2.828125 -5.875 C 2.828125 -5.039062 3.019531 -4.285156 3.40625 -3.609375 C 3.789062 -2.941406 4.3125 -2.410156 4.96875 -2.015625 C 5.625 -1.628906 6.34375 -1.4375 7.125 -1.4375 Z M 7.125 -1.4375 "/></g></g></g><g fill="#ffffff" fill-opacity="1"><g transform="translate(218.328334, 219.125465)"><g><path d="M 3.71875 0 L 1.921875 0 L 1.921875 -17.28125 L 3.71875 -17.28125 Z M 3.71875 0 "/></g></g></g><g fill="#ffffff" fill-opacity="1"><g transform="translate(223.00835, 219.125465)"><g/></g></g><g fill="#ffffff" fill-opacity="1"><g transform="translate(228.768367, 219.125465)"><g><path d="M 14.765625 -12 C 15.628906 -12 16.394531 -11.78125 17.0625 -11.34375 C 17.738281 -10.90625 18.265625 -10.304688 18.640625 -9.546875 C 19.015625 -8.785156 19.203125 -7.921875 19.203125 -6.953125 L 19.203125 0 L 17.40625 0 L 17.40625 -6.953125 C 17.40625 -7.929688 17.144531 -8.734375 16.625 -9.359375 C 16.101562 -9.992188 15.398438 -10.3125 14.515625 -10.3125 C 13.960938 -10.3125 13.445312 -10.164062 12.96875 -9.875 C 12.5 -9.582031 12.117188 -9.175781 11.828125 -8.65625 C 11.546875 -8.144531 11.40625 -7.578125 11.40625 -6.953125 L 11.40625 0 L 9.59375 0 L 9.59375 -6.953125 C 9.59375 -7.929688 9.332031 -8.734375 8.8125 -9.359375 C 8.300781 -9.992188 7.601562 -10.3125 6.71875 -10.3125 C 6.15625 -10.3125 5.640625 -10.164062 5.171875 -9.875 C 4.703125 -9.582031 4.320312 -9.175781 4.03125 -8.65625 C 3.738281 -8.144531 3.59375 -7.578125 3.59375 -6.953125 L 3.59375 0 L 1.796875 0 L 1.796875 -11.765625 L 3.59375 -11.765625 L 3.59375 -10.203125 C 4.007812 -10.796875 4.503906 -11.242188 5.078125 -11.546875 C 5.660156 -11.847656 6.285156 -12 6.953125 -12 C 7.773438 -12 8.53125 -11.78125 9.21875 -11.34375 C 9.914062 -10.90625 10.441406 -10.320312 10.796875 -9.59375 C 11.210938 -10.363281 11.765625 -10.957031 12.453125 -11.375 C 13.140625 -11.789062 13.910156 -12 14.765625 -12 Z M 14.765625 -12 "/></g></g></g><g fill="#ffffff" fill-opacity="1"><g transform="translate(248.68841, 219.125465)"><g><path d="M 11.296875 -11.765625 L 13.109375 -11.765625 L 13.109375 0 L 11.296875 0 L 11.296875 -1.796875 C 10.804688 -1.171875 10.179688 -0.675781 9.421875 -0.3125 C 8.671875 0.0507812 7.859375 0.234375 6.984375 0.234375 C 5.910156 0.234375 4.910156 -0.03125 3.984375 -0.5625 C 3.054688 -1.101562 2.316406 -1.835938 1.765625 -2.765625 C 1.222656 -3.703125 0.953125 -4.738281 0.953125 -5.875 C 0.953125 -7.007812 1.222656 -8.046875 1.765625 -8.984375 C 2.316406 -9.921875 3.054688 -10.65625 3.984375 -11.1875 C 4.910156 -11.726562 5.910156 -12 6.984375 -12 C 7.859375 -12 8.671875 -11.8125 9.421875 -11.4375 C 10.179688 -11.070312 10.804688 -10.578125 11.296875 -9.953125 Z M 7.125 -1.4375 C 7.90625 -1.4375 8.625 -1.628906 9.28125 -2.015625 C 9.9375 -2.410156 10.457031 -2.941406 10.84375 -3.609375 C 11.226562 -4.285156 11.421875 -5.039062 11.421875 -5.875 C 11.421875 -6.707031 11.226562 -7.457031 10.84375 -8.125 C 10.457031 -8.800781 9.9375 -9.332031 9.28125 -9.71875 C 8.625 -10.113281 7.90625 -10.3125 7.125 -10.3125 C 6.34375 -10.3125 5.625 -10.113281 4.96875 -9.71875 C 4.3125 -9.332031 3.789062 -8.800781 3.40625 -8.125 C 3.019531 -7.457031 2.828125 -6.707031 2.828125 -5.875 C 2.828125 -5.039062 3.019531 -4.285156 3.40625 -3.609375 C 3.789062 -2.941406 4.3125 -2.410156 4.96875 -2.015625 C 5.625 -1.628906 6.34375 -1.4375 7.125 -1.4375 Z M 7.125 -1.4375 "/></g></g></g><g fill="#ffffff" fill-opacity="1"><g transform="translate(262.632433, 219.125465)"><g><path d="M 8.28125 -11.875 L 8.28125 -10.203125 L 7.078125 -10.203125 C 6.441406 -10.203125 5.859375 -10.050781 5.328125 -9.75 C 4.796875 -9.457031 4.375 -9.046875 4.0625 -8.515625 C 3.75 -7.992188 3.59375 -7.394531 3.59375 -6.71875 L 3.59375 0 L 1.796875 0 L 1.796875 -11.765625 L 3.59375 -11.765625 L 3.59375 -10.078125 C 4.070312 -10.671875 4.628906 -11.117188 5.265625 -11.421875 C 5.898438 -11.722656 6.582031 -11.875 7.3125 -11.875 Z M 8.28125 -11.875 "/></g></g></g><g fill="#ffffff" fill-opacity="1"><g transform="translate(270.192446, 219.125465)"><g><path d="M 5.640625 -6.078125 L 11.609375 0 L 9.171875 0 L 3.71875 -5.609375 L 3.71875 0 L 1.921875 0 L 1.921875 -17.28125 L 3.71875 -17.28125 L 3.71875 -6.40625 L 8.90625 -11.765625 L 11.203125 -11.765625 Z M 5.640625 -6.078125 "/></g></g></g><g fill="#ffffff" fill-opacity="1"><g transform="translate(280.968465, 219.125465)"><g><path d="M 6.859375 -12 C 7.929688 -12 8.910156 -11.753906 9.796875 -11.265625 C 10.691406 -10.773438 11.394531 -10.085938 11.90625 -9.203125 C 12.414062 -8.316406 12.671875 -7.304688 12.671875 -6.171875 C 12.671875 -5.785156 12.65625 -5.488281 12.625 -5.28125 L 2.859375 -5.28125 C 2.972656 -4.113281 3.382812 -3.179688 4.09375 -2.484375 C 4.800781 -1.785156 5.722656 -1.4375 6.859375 -1.4375 C 8.523438 -1.4375 9.726562 -2.117188 10.46875 -3.484375 L 12.390625 -3.484375 C 11.898438 -2.285156 11.179688 -1.363281 10.234375 -0.71875 C 9.296875 -0.0820312 8.171875 0.234375 6.859375 0.234375 C 5.753906 0.234375 4.75 -0.03125 3.84375 -0.5625 C 2.945312 -1.101562 2.238281 -1.835938 1.71875 -2.765625 C 1.207031 -3.691406 0.953125 -4.726562 0.953125 -5.875 C 0.953125 -7.03125 1.207031 -8.070312 1.71875 -9 C 2.238281 -9.925781 2.945312 -10.65625 3.84375 -11.1875 C 4.75 -11.726562 5.753906 -12 6.859375 -12 Z M 6.859375 -10.3125 C 5.804688 -10.3125 4.929688 -10.007812 4.234375 -9.40625 C 3.535156 -8.800781 3.097656 -7.96875 2.921875 -6.90625 L 10.78125 -6.90625 C 10.664062 -7.9375 10.242188 -8.757812 9.515625 -9.375 C 8.785156 -10 7.898438 -10.3125 6.859375 -10.3125 Z M 6.859375 -10.3125 "/></g></g></g><g fill="#ffffff" fill-opacity="1"><g transform="translate(293.520493, 219.125465)"><g><path d="M 7.4375 -10.125 L 4.4375 -10.125 L 4.4375 -3.59375 C 4.4375 -3.007812 4.609375 -2.546875 4.953125 -2.203125 C 5.296875 -1.859375 5.765625 -1.6875 6.359375 -1.6875 L 7.4375 -1.6875 L 7.4375 0 L 6.234375 0 C 5.160156 0 4.289062 -0.320312 3.625 -0.96875 C 2.96875 -1.613281 2.640625 -2.453125 2.640625 -3.484375 L 2.640625 -10.125 L 0.71875 -10.125 L 0.71875 -11.765625 L 2.640625 -11.765625 L 2.640625 -14.875 L 4.4375 -14.875 L 4.4375 -11.765625 L 7.4375 -11.765625 Z M 7.4375 -10.125 "/></g></g></g><g fill="#ffffff" fill-opacity="1"><g transform="translate(300.960514, 219.125465)"><g><path d="M 3.59375 0 L 1.796875 0 L 1.796875 -11.765625 L 3.59375 -11.765625 Z M 3.75 -14.015625 L 1.65625 -14.015625 L 1.65625 -16.21875 L 3.75 -16.21875 Z M 3.75 -14.015625 "/></g></g></g><g fill="#ffffff" fill-opacity="1"><g transform="translate(305.400524, 219.125465)"><g><path d="M 7.3125 -12 C 8.257812 -12 9.097656 -11.769531 9.828125 -11.3125 C 10.554688 -10.851562 11.117188 -10.234375 11.515625 -9.453125 C 11.921875 -8.671875 12.125 -7.800781 12.125 -6.84375 L 12.125 0 L 10.3125 0 L 10.3125 -6.84375 C 10.3125 -7.882812 10.023438 -8.722656 9.453125 -9.359375 C 8.878906 -9.992188 8.085938 -10.3125 7.078125 -10.3125 C 6.441406 -10.3125 5.859375 -10.164062 5.328125 -9.875 C 4.796875 -9.582031 4.375 -9.171875 4.0625 -8.640625 C 3.75 -8.109375 3.59375 -7.507812 3.59375 -6.84375 L 3.59375 0 L 1.796875 0 L 1.796875 -11.765625 L 3.59375 -11.765625 L 3.59375 -10.203125 C 4.070312 -10.796875 4.628906 -11.242188 5.265625 -11.546875 C 5.898438 -11.847656 6.582031 -12 7.3125 -12 Z M 7.3125 -12 "/></g></g></g><g fill="#ffffff" fill-opacity="1"><g transform="translate(318.240554, 219.125465)"><g><path d="M 11.0625 -11.765625 L 12.859375 -11.765625 L 12.859375 -0.71875 C 12.859375 0.382812 12.609375 1.375 12.109375 2.25 C 11.617188 3.132812 10.929688 3.820312 10.046875 4.3125 C 9.160156 4.800781 8.140625 5.046875 6.984375 5.046875 C 5.609375 5.046875 4.414062 4.679688 3.40625 3.953125 C 2.394531 3.222656 1.707031 2.222656 1.34375 0.953125 L 3.140625 0.953125 C 3.429688 1.691406 3.914062 2.273438 4.59375 2.703125 C 5.269531 3.140625 6.066406 3.359375 6.984375 3.359375 C 8.234375 3.359375 9.222656 2.984375 9.953125 2.234375 C 10.691406 1.484375 11.0625 0.5 11.0625 -0.71875 L 11.0625 -2.25 C 10.550781 -1.625 9.9375 -1.128906 9.21875 -0.765625 C 8.507812 -0.410156 7.722656 -0.234375 6.859375 -0.234375 C 5.773438 -0.234375 4.785156 -0.484375 3.890625 -0.984375 C 2.992188 -1.484375 2.28125 -2.179688 1.75 -3.078125 C 1.21875 -3.972656 0.953125 -4.988281 0.953125 -6.125 C 0.953125 -7.257812 1.21875 -8.273438 1.75 -9.171875 C 2.28125 -10.066406 2.992188 -10.757812 3.890625 -11.25 C 4.785156 -11.75 5.773438 -12 6.859375 -12 C 7.722656 -12 8.507812 -11.816406 9.21875 -11.453125 C 9.9375 -11.097656 10.550781 -10.609375 11.0625 -9.984375 Z M 7.015625 -1.921875 C 7.796875 -1.921875 8.503906 -2.101562 9.140625 -2.46875 C 9.785156 -2.84375 10.285156 -3.347656 10.640625 -3.984375 C 11.003906 -4.617188 11.1875 -5.332031 11.1875 -6.125 C 11.1875 -6.90625 11.003906 -7.613281 10.640625 -8.25 C 10.285156 -8.894531 9.785156 -9.398438 9.140625 -9.765625 C 8.503906 -10.128906 7.796875 -10.3125 7.015625 -10.3125 C 6.222656 -10.3125 5.503906 -10.128906 4.859375 -9.765625 C 4.222656 -9.398438 3.722656 -8.894531 3.359375 -8.25 C 3.003906 -7.613281 2.828125 -6.90625 2.828125 -6.125 C 2.828125 -5.332031 3.003906 -4.617188 3.359375 -3.984375 C 3.722656 -3.347656 4.222656 -2.84375 4.859375 -2.46875 C 5.503906 -2.101562 6.222656 -1.921875 7.015625 -1.921875 Z M 7.015625 -1.921875 "/></g></g></g></svg>